<?xml version="1.0" encoding="utf-8"?>
<!-- Generator: Adobe Illustrator 27.5.0, SVG Export Plug-In . SVG Version: 6.00 Build 0)  -->
<svg version="1.1" xmlns="http://www.w3.org/2000/svg" xmlns:xlink="http://www.w3.org/1999/xlink" x="0px" y="0px"
	 viewBox="0 0 500 500" style="enable-background:new 0 0 500 500;" xml:space="preserve">
<g id="BACKGROUND">
	<rect style="fill:rgba(255, 255, 255, 0);" width="500" height="500"/>
</g>
<g id="OBJECTS">
	<path style="fill:#EBE0FF;" d="M84.436,154.484c-1.592,0.723-3.158,1.508-4.693,2.367c-31.849,17.81-40.476,57.396-36.47,90.713
		c4.766,39.641,27.525,74.44,33.783,113.762c1.738,10.92,2.336,22.549,8.399,31.797c7.63,11.637,22.613,18.56,33.681,26.473
		c11.467,8.198,23.872,14.998,37.997,18.018c32.512,6.952,66.085,6.291,99.138,5.604c43.74-0.909,99.183-4.429,135.26-31.899
		c15.956-12.149,28.395-29.387,32.913-48.926c5.414-23.418-0.506-47.278-0.964-70.861c-0.465-23.943,9.743-41.637,16.832-63.855
		c4.597-14.406,6.781-30.465,0.896-44.395c-5.612-13.285-17.945-20.782-26.136-31.977c-10.092-13.793-20.774-24.721-34.811-35.008
		c-24.541-17.985-52.579-34.058-83.005-34.037c-34.747,0.024-65.489,20.712-96.737,35.906c-24.906,12.11-51.353,21.046-78.5,26.523
		C109.304,147.255,96.17,149.157,84.436,154.484z"/>
	<g>
		<path style="fill:#CCB5FC;" d="M153.64,165.715c9.838-12.194,16.193-28.118,13.458-43.545
			c-4.298-24.245-31.071-40.195-55.568-37.699c-19.376,1.975-37.594,13.904-46.653,31.146c-9.059,17.242-8.44,39.32,2.045,55.734
			c8.863,13.876,25.568,24.133,42.26,24.314C126.275,195.85,143.351,178.469,153.64,165.715z"/>
		<path style="fill:#CCB5FC;" d="M297.17,260.377c-16.658-10.08-30.96-23.987-42.028-39.967
			c-16.714-24.133-26.246-52.791-30.03-81.901c-2.01-15.46-2.366-31.651,3.421-46.128c6.933-17.344,22.867-30.796,41.128-34.72
			c24.884-5.348,42.063,6.75,59.011,22.589c6.368,5.952,11.886,12.816,18.681,18.276c14.303,11.493,32.924,15.796,49.341,23.99
			c50.579,25.244,87.155,96.942,38.685,142.013c-19.532,18.163-47.968,25.387-74.329,21.329
			c-19.422-2.99-42.744-13.629-59.905-23.173C299.805,261.939,298.48,261.17,297.17,260.377z"/>
	</g>
	<g>
		<defs>
			<path id="SVGID_1_" d="M73.311,144.554c-22.295,28.997-34.618,64.919-30.038,103.009c4.766,39.641,27.525,74.44,33.783,113.762
				c1.738,10.92,2.336,22.549,8.399,31.797c7.63,11.637,22.613,18.56,33.681,26.473c11.467,8.198,23.872,14.998,37.997,18.018
				c32.512,6.952,66.085,6.291,99.138,5.604c43.74-0.909,99.183-4.429,135.26-31.9c23.629-17.992,32.009-42.49,38.153-70.373
				c7.594-34.467,12.617-69.498,14.995-104.712c1.334-19.763,1.809-39.879-2.973-59.101c-9.264-37.241-37.995-67.711-72.142-85.224
				c-34.148-17.512-73.268-23.25-111.645-23.294c-42.897-0.049-86.499,6.959-124.711,26.452
				C109.882,106.965,89.096,124.024,73.311,144.554z"/>
		</defs>
		<clipPath id="SVGID_00000052084466667185523450000007249438053163867566_">
			<use xlink:href="#SVGID_1_"  style="overflow:visible;"/>
		</clipPath>
		<g style="clip-path:url(#SVGID_00000052084466667185523450000007249438053163867566_);">
			<g>
				<polygon style="fill:#7A5CE0;" points="338,358.502 340.579,294.895 249.769,200.472 241.445,358.502 				"/>
				<path style="fill:#7A5CE0;" d="M422.772,195.533c0.283,11.026-0.534,22.406-1.181,34.165
					c-1.094,19.895-5.181,62.283-18.86,77.865c-7.053,8.034-39.038,6.102-60.68,0.812c-15.608-3.816-28.528-15.919-40.143-26.43
					c-10.682-9.666-20.185-19.809-29.161-30.886c-9.456-11.67-20.386-20.936-26.904-34.909c-2.89-6.194-4.857-12.802-6.116-19.527
					c-4.459-23.815,0.83-50.337,17.743-67.587c40.359-41.164,114.707-30.608,148.61,13.916
					C418.729,159.564,422.297,177.052,422.772,195.533z"/>
				<path style="fill:#7A5CE0;" d="M418.93,202.533l23.094,40.318c1.461,2.551-0.298,5.752-3.222,5.861l-22.557,0.841
					L418.93,202.533z"/>
				<path style="fill:#7A5CE0;" d="M397.726,447.474L397.726,447.474c0-56.091-45.471-101.562-101.561-101.562h-49.611v101.562
					H397.726z"/>
			</g>
			<line style="fill:none;stroke:#000000;stroke-miterlimit:10;" x1="420.541" y1="249.553" x2="410.86" y2="249.553"/>
			<path style="fill:none;stroke:#000000;stroke-miterlimit:10;" d="M344.814,308.497c-7.894-2.278-15.387-5.954-22.034-10.806"/>
			<path style="fill:#FFFFFF;" d="M262.582,220.252c-4.63-2.768-8.483-6.605-10.832-12.033c-4.39-10.146-3.687-22.046-2.679-32.792
				c2.682-28.606,21.505-52.03,49.09-59.582c17.723-4.852,36.615-5.882,54.553-1.893c17.938,3.989,34.861,13.121,47.261,26.683
				c3.534,3.865,6.736,8.143,8.588,13.042c5.905,15.622-1.5,36.735-12.81,48.205c-11.839,12.007-29.649,17.557-46.344,15.188
				c-5.973-0.848-12.013-2.637-17.933-1.474c-7.088,1.393-12.723,6.814-16.884,12.718c-4.161,5.904-7.296,12.52-11.864,18.116
				c-0.705,0.864-1.488,1.734-2.535,2.117c-2.755,1.01-5.493-1.906-6.104-4.776c-0.611-2.87-0.057-5.933-0.95-8.728
				c-1.745-5.459-8.098-7.792-13.723-8.894C273.508,224.991,267.59,223.247,262.582,220.252z"/>
			<g>
				<g>
					<path style="fill:none;stroke:#000000;stroke-linecap:round;stroke-miterlimit:10;" d="M413.757,208.677
						c0,0-3.877,9.61-17.635,9.178c-13.591-0.427-17.635-9.178-17.635-9.178"/>
				</g>
			</g>
			<g>
				<g>
					<path style="fill:none;stroke:#1D1E1B;stroke-linecap:round;stroke-linejoin:round;stroke-miterlimit:10;" d="M404.818,165.643
						c4.667-6.222-0.414-15.449-6.117-20.007c-0.635-0.507-6.847-3.459-6.846-3.451c-1.062-7.953-8.831-14.415-16.845-14.011
						c-5.44-9.053-17.801-13.206-27.604-9.275c-9.04-6.989-23.195-6.182-31.382,1.79c-7.567-3.579-17.637-0.405-21.784,6.867
						c-4.979-1.381-10.493,0.347-14.42,3.706c-3.926,3.359-6.403,8.159-7.803,13.133c-7.202,2.072-11.975,10.346-10.165,17.618
						c-5.617,2.811-8.569,10.04-6.526,15.98c-4.277,4.387-5.291,11.615-2.386,17.009c0.606,1.126,1.371,2.193,1.686,3.432
						c0.287,1.126,0.182,2.308,0.231,3.469c0.227,5.285,4.052,10.227,9.113,11.771c5.06,1.543,10.993-0.422,14.13-4.682
						c6.302,1.635,12.081,3.928,18.592,3.944c6.511,0.016,13.199-1.54,18.397-5.461c5.831,4.908,15.153,5.024,21.105,0.263
						c4.972,4.489,11.727,6.948,18.421,6.705c6.695-0.242,13.253-3.183,17.888-8.02c3.773-3.938,6.272-10.002,3.767-14.847
						c7.188,1.002,14.559-0.809,20.664-4.674c4.921-3.116,11.575-6.991,8.872-14.122c-0.72-1.9-2.302-3.368-4.061-4.382
						C403.051,167.579,404.062,166.65,404.818,165.643z"/>
					<path style="fill:none;stroke:#1D1E1B;stroke-linecap:round;stroke-linejoin:round;stroke-miterlimit:10;" d="M276.685,160.881
						c-1.082,0.616-1.902,1.605-2.596,2.64c-2.997,4.47-3.995,10.228-2.677,15.446"/>
					<path style="fill:none;stroke:#1D1E1B;stroke-linecap:round;stroke-linejoin:round;stroke-miterlimit:10;" d="M267.835,188.954
						c2.747,3.474,7.365,5.369,11.76,4.826c-3.752,1.428-6.814,4.566-8.148,8.352"/>
					<path style="fill:none;stroke:#1D1E1B;stroke-linecap:round;stroke-linejoin:round;stroke-miterlimit:10;" d="M292.132,143.415
						c-7.541-0.146-14.872,5.105-17.161,12.292"/>
					<path style="fill:none;stroke:#1D1E1B;stroke-linecap:round;stroke-linejoin:round;stroke-miterlimit:10;" d="M270.753,175.12
						c-1.821,0.367-3.509,1.365-4.706,2.785c-1.198,1.42-1.897,3.252-1.952,5.109"/>
					<path style="fill:none;stroke:#1D1E1B;stroke-linecap:round;stroke-linejoin:round;stroke-miterlimit:10;" d="M315.368,157.342
						c-2.494-4.121-7.884-6.172-12.539-4.933s-8.268,5.561-8.855,10.342"/>
					<path style="fill:none;stroke:#1D1E1B;stroke-linecap:round;stroke-linejoin:round;stroke-miterlimit:10;" d="M377.325,193.956
						c-2.164-7.26-6.812-13.938-13.417-17.651c-6.604-3.712-15.204-4.101-21.682-0.172c-3.559-5.292-9.423-8.973-15.736-9.878
						c-6.313-0.905-12.975,0.98-17.877,5.059"/>
					<path style="fill:none;stroke:#1D1E1B;stroke-linecap:round;stroke-linejoin:round;stroke-miterlimit:10;" d="M363.637,188.905
						c-3.393,2.596-7.891,3.697-12.1,2.96c-4.209-0.737-8.065-3.299-10.376-6.893c-1.674,2.404-4.811,3.253-7.717,3.629
						c-2.092,0.271-4.237,0.384-6.294-0.085c-2.056-0.469-4.032-1.58-5.192-3.342c-4.35,3.318-10.108,4.724-15.498,3.783
						c-5.39-0.941-10.332-4.213-13.301-8.808c-1.795-2.778-2.868-5.95-3.923-9.085"/>
					<path style="fill:none;stroke:#1D1E1B;stroke-linecap:round;stroke-linejoin:round;stroke-miterlimit:10;" d="M302.224,199.032
						c8.108,1.326,16.711-0.693,23.384-5.485"/>
					<path style="fill:none;stroke:#1D1E1B;stroke-linecap:round;stroke-linejoin:round;stroke-miterlimit:10;" d="M358.141,191.681
						c2.37,3.301,2.663,7.605,1.105,11.358"/>
					<path style="fill:none;stroke:#1D1E1B;stroke-linecap:round;stroke-linejoin:round;stroke-miterlimit:10;" d="M320.18,196.604
						c0.624,0.441,1.159,0.994,1.749,1.479c1.713,1.41,3.856,2.224,6.036,2.636c2.181,0.411,4.414,0.44,6.632,0.426"/>
					<path style="fill:none;stroke:#1D1E1B;stroke-linecap:round;stroke-linejoin:round;stroke-miterlimit:10;" d="M289.339,164.602
						c1.36,5.657-0.727,12.002-5.179,15.747"/>
					<path style="fill:none;stroke:#1D1E1B;stroke-linecap:round;stroke-linejoin:round;stroke-miterlimit:10;" d="M290.389,150.087
						c3.084,0.597,6.369,1.506,8.321,3.967"/>
					<path style="fill:none;stroke:#1D1E1B;stroke-linecap:round;stroke-linejoin:round;stroke-miterlimit:10;" d="M310.312,153.068
						c-0.351,0.051-0.67,0.228-0.971,0.416c-3.513,2.186-5.749,6.285-5.685,10.422"/>
					<path style="fill:none;stroke:#1D1E1B;stroke-linecap:round;stroke-linejoin:round;stroke-miterlimit:10;" d="M373.314,144.621
						c-3.151,2.435-5.39,6.022-6.195,9.922c-0.695,3.366-0.345,6.856,0.168,10.255c-0.015-0.209-0.029-0.418-0.044-0.627"/>
					<path style="fill:none;stroke:#1D1E1B;stroke-linecap:round;stroke-linejoin:round;stroke-miterlimit:10;" d="M345.872,141.648
						c1.389,2.545,2.667,5.189,3.287,8.021s0.538,5.894-0.711,8.511"/>
					<path style="fill:none;stroke:#1D1E1B;stroke-linecap:round;stroke-linejoin:round;stroke-miterlimit:10;" d="M368.583,150.499
						c-0.691-2.773-2.172-5.344-4.225-7.331"/>
					<path style="fill:none;stroke:#1D1E1B;stroke-linecap:round;stroke-linejoin:round;stroke-miterlimit:10;" d="M366.729,158.249
						c-2.32,0.768-4.418,2.192-5.988,4.065"/>
					<path style="fill:none;stroke:#1D1E1B;stroke-linecap:round;stroke-linejoin:round;stroke-miterlimit:10;" d="M349.345,148.784
						c0.974-2.394,2.857-4.405,5.181-5.535"/>
					<path style="fill:none;stroke:#1D1E1B;stroke-linecap:round;stroke-linejoin:round;stroke-miterlimit:10;" d="M323.406,123.431
						c-0.029,4.247,1.494,8.488,4.217,11.748c2.723,3.26,6.626,5.512,10.81,6.239"/>
					<path style="fill:none;stroke:#1D1E1B;stroke-linecap:round;stroke-linejoin:round;stroke-miterlimit:10;" d="M303.016,133.691
						c5.097-2.042,11.259,0.054,14.857,4.202c3.598,4.148,4.873,9.941,4.441,15.415"/>
					<path style="fill:none;stroke:#1D1E1B;stroke-linecap:round;stroke-linejoin:round;stroke-miterlimit:10;" d="M332.735,139.625
						c1.535,1.574,2.52,3.675,2.749,5.862c0.229,2.187-0.301,4.446-1.478,6.304"/>
					<path style="fill:none;stroke:#1D1E1B;stroke-linecap:round;stroke-linejoin:round;stroke-miterlimit:10;" d="M313.637,134.445
						c0.289-3.016-1.012-6.139-3.357-8.057"/>
					<path style="fill:none;stroke:#1D1E1B;stroke-linecap:round;stroke-linejoin:round;stroke-miterlimit:10;" d="M387.976,162.199
						c3.288,2.004,5.281,5.895,5.149,9.743c-0.132,3.848-2.318,7.531-5.546,9.63"/>
					<path style="fill:none;stroke:#1D1E1B;stroke-linecap:round;stroke-linejoin:round;stroke-miterlimit:10;" d="M385.217,153.658
						c0.752-5.27-1.27-10.857-5.22-14.426c-3.95-3.569-9.713-5.015-14.88-3.735"/>
					<path style="fill:none;stroke:#1D1E1B;stroke-linecap:round;stroke-linejoin:round;stroke-miterlimit:10;" d="M370.201,134.855
						c-2.804-3.979-7.338-6.691-12.169-7.28c-4.832-0.589-9.885,0.955-13.562,4.143"/>
					<path style="fill:none;stroke:#1D1E1B;stroke-linecap:round;stroke-linejoin:round;stroke-miterlimit:10;" d="M392.863,167.643
						c3.561-1.227,6.32-4.527,6.896-8.249"/>
					<path style="fill:none;stroke:#1D1E1B;stroke-linecap:round;stroke-linejoin:round;stroke-miterlimit:10;" d="M392.217,176.146
						c0.268,0.46,0.749,0.743,1.135,1.109c1.006,0.954,1.315,2.411,1.575,3.773"/>
					<path style="fill:none;stroke:#1D1E1B;stroke-linecap:round;stroke-linejoin:round;stroke-miterlimit:10;" d="M366.682,178.36
						c1.435-4.137,4.054-7.856,7.466-10.6"/>
					<path style="fill:none;stroke:#1D1E1B;stroke-linecap:round;stroke-linejoin:round;stroke-miterlimit:10;" d="M372.722,183.893
						c2.552-1.176,4.952-2.683,7.12-4.471"/>
					<path style="fill:none;stroke:#1D1E1B;stroke-linecap:round;stroke-linejoin:round;stroke-miterlimit:10;" d="M352.245,173.328
						c-0.195-1.406-0.19-2.84,0.015-4.245"/>
				</g>
				<path style="fill:none;stroke:#1D1E1B;stroke-linecap:round;stroke-linejoin:round;stroke-miterlimit:10;" d="M273.495,212.716
					c-0.352,2.642,0.851,5.336,2.748,7.208c1.897,1.872,4.416,3.005,6.991,3.696c7.965,2.137,16.792,0.19,23.492-4.619
					c1.4-1.005,2.749-2.167,3.554-3.692c0.805-1.524,0.973-3.48,0.048-4.935"/>
				<path style="fill:none;stroke:#1D1E1B;stroke-linecap:round;stroke-linejoin:round;stroke-miterlimit:10;" d="M326.067,211.404
					c-10.354,5.902-18.439,15.68-22.289,26.959c-0.632,1.85-1.48,4.049-3.399,4.425c-1.528,0.299-3.052-0.846-3.674-2.273
					c-0.621-1.428-0.537-3.055-0.347-4.6c0.549-4.466,2.594-9.387,4.655-13.387"/>
				<path style="fill:none;stroke:#1D1E1B;stroke-linecap:round;stroke-linejoin:round;stroke-miterlimit:10;" d="M278.914,215.269
					c0.929,1.132,2.125,2.043,3.463,2.638c3.226,1.434,6.933,0.96,10.445,1.32"/>
			</g>
		</g>
		<g style="clip-path:url(#SVGID_00000052084466667185523450000007249438053163867566_);">
			<g>
				<polygon points="248.332,358.502 248.332,207.161 247.979,200.472 157.169,294.895 159.748,358.502 				"/>
				<path d="M248.332,139.281c-2.312-3.67-4.986-7.113-8.054-10.243C199.918,87.874,125.57,98.43,91.667,142.954
					c-12.648,16.611-16.216,34.098-16.691,52.58c-0.284,11.026,0.534,22.406,1.181,34.165c1.094,19.895,7.507,58.956,15.165,78.225
					c1.153,2.901,42.733,5.743,64.375,0.452c15.608-3.816,28.528-15.919,40.143-26.43c10.682-9.667,20.185-19.809,29.161-30.886
					c7.897-9.746,16.808-17.831,23.331-28.367V139.281z"/>
				<path d="M78.818,202.533l-23.094,40.318c-1.461,2.551,0.298,5.752,3.222,5.861l22.556,0.841L78.818,202.533z"/>
				<path d="M248.332,447.474V345.073h-49.433c-56.091,0-101.562,45.471-101.562,101.561v0c0,0.281,0.008,0.559,0.011,0.839H248.332
					z"/>
			</g>
			<g>
				<g>
					<g>
						<polyline style="fill:none;stroke:#7A5CE0;stroke-miterlimit:10;" points="150.18,115.586 174.993,115.586 182.662,123.114 
													"/>
						<polyline style="fill:none;stroke:#7A5CE0;stroke-miterlimit:10;" points="182.92,115.417 189.985,122.352 209.629,122.352 
													"/>
						<polyline style="fill:none;stroke:#7A5CE0;stroke-miterlimit:10;" points="143.804,119.646 161.38,119.646 170.944,129.034 
													"/>
						<polyline style="fill:none;stroke:#7A5CE0;stroke-miterlimit:10;" points="168.962,131.487 174.132,136.561 187.4,136.561 
							191.191,132.84 						"/>
						<polyline style="fill:none;stroke:#7A5CE0;stroke-miterlimit:10;" points="168.618,119.308 177.751,128.273 195.499,128.273 
													"/>
						<line style="fill:none;stroke:#7A5CE0;stroke-miterlimit:10;" x1="217.556" y1="121.676" x2="210.146" y2="128.949"/>
						<polyline style="fill:none;stroke:#7A5CE0;stroke-miterlimit:10;" points="204.287,126.412 189.554,140.875 171.547,140.621 
							155.177,124.89 137.601,124.89 						"/>
						<line style="fill:none;stroke:#7A5CE0;stroke-miterlimit:10;" x1="146.217" y1="127.765" x2="155.522" y2="136.9"/>
						<polyline style="fill:none;stroke:#7A5CE0;stroke-miterlimit:10;" points="123.643,125.397 132.776,125.397 148.801,141.129 
													"/>
						<polyline style="fill:none;stroke:#7A5CE0;stroke-miterlimit:10;" points="118.646,129.118 130.88,129.118 137.773,135.885 
													"/>
						<polyline style="fill:none;stroke:#7A5CE0;stroke-miterlimit:10;" points="114.166,133.686 125.539,133.686 132.087,140.114 
							141.736,140.114 						"/>
						<polyline style="fill:none;stroke:#7A5CE0;stroke-miterlimit:10;" points="162.587,138.253 156.556,144.173 137.084,144.173 
							123.126,157.875 						"/>
						<line style="fill:none;stroke:#7A5CE0;stroke-miterlimit:10;" x1="117.957" y1="138.422" x2="126.314" y2="146.626"/>
						<line style="fill:none;stroke:#7A5CE0;stroke-miterlimit:10;" x1="111.236" y1="139.775" x2="122.006" y2="150.348"/>
						<polyline style="fill:none;stroke:#7A5CE0;stroke-miterlimit:10;" points="110.03,146.203 117.871,153.9 117.871,172.253 
							127.133,181.346 						"/>
						<path style="fill:#7A5CE0;" d="M112.27,146.288c0,1.355-1.119,2.453-2.499,2.453c-1.38,0-2.498-1.098-2.498-2.453
							c0-1.355,1.119-2.453,2.498-2.453C111.152,143.835,112.27,144.933,112.27,146.288z"/>
						<path style="fill:#7A5CE0;" d="M107.187,161.766c0,1.355-1.119,2.453-2.499,2.453s-2.498-1.098-2.498-2.453
							c0-1.355,1.119-2.453,2.498-2.453S107.187,160.411,107.187,161.766z"/>
						<path style="fill:#7A5CE0;" d="M117.095,134.109c0,1.354-1.119,2.453-2.499,2.453c-1.38,0-2.499-1.098-2.499-2.453
							c0-1.355,1.119-2.453,2.499-2.453C115.976,131.656,117.095,132.754,117.095,134.109z"/>
						<path style="fill:#7A5CE0;" d="M120.886,138.507c0,1.355-1.119,2.453-2.499,2.453c-1.38,0-2.498-1.098-2.498-2.453
							c0-1.355,1.119-2.453,2.498-2.453C119.768,136.054,120.886,137.152,120.886,138.507z"/>
						<path style="fill:#7A5CE0;" d="M125.28,150.94c0,1.355-1.119,2.453-2.499,2.453c-1.38,0-2.499-1.098-2.499-2.453
							c0-1.355,1.119-2.453,2.499-2.453C124.162,148.487,125.28,149.585,125.28,150.94z"/>
						<path style="fill:#7A5CE0;" d="M112.098,182.572c0,1.355-1.119,2.453-2.499,2.453c-1.38,0-2.499-1.098-2.499-2.453
							c0-1.354,1.119-2.453,2.499-2.453C110.979,180.119,112.098,181.217,112.098,182.572z"/>
						<path style="fill:#7A5CE0;" d="M114.597,139.775c0,1.355-1.119,2.453-2.499,2.453c-1.38,0-2.499-1.098-2.499-2.453
							c0-1.355,1.119-2.453,2.499-2.453C113.478,137.323,114.597,138.421,114.597,139.775z"/>
						<path style="fill:#7A5CE0;" d="M128.813,146.626c0,1.355-1.119,2.453-2.499,2.453c-1.38,0-2.499-1.098-2.499-2.453
							c0-1.355,1.119-2.453,2.499-2.453C127.694,144.173,128.813,145.272,128.813,146.626z"/>
						<path style="fill:#7A5CE0;" d="M105.464,154.154c0,1.355-1.119,2.453-2.499,2.453c-1.38,0-2.499-1.098-2.499-2.453
							c0-1.355,1.119-2.453,2.499-2.453C104.345,151.701,105.464,152.799,105.464,154.154z"/>
						<path style="fill:#7A5CE0;" d="M102.017,167.517c0,1.354-1.119,2.453-2.499,2.453c-1.38,0-2.499-1.098-2.499-2.453
							c0-1.355,1.119-2.453,2.499-2.453C100.899,165.064,102.017,166.162,102.017,167.517z"/>
						<path style="fill:#7A5CE0;" d="M151.472,140.114c0,1.355-1.119,2.453-2.499,2.453c-1.38,0-2.499-1.098-2.499-2.453
							c0-1.355,1.119-2.453,2.499-2.453C150.354,137.661,151.472,138.759,151.472,140.114z"/>
						<path style="fill:#7A5CE0;" d="M146.992,119.646c0,1.355-1.119,2.453-2.499,2.453c-1.38,0-2.499-1.098-2.499-2.453
							s1.119-2.453,2.499-2.453C145.873,117.193,146.992,118.291,146.992,119.646z"/>
						<path style="fill:#7A5CE0;" d="M185.419,115.248c0,1.355-1.119,2.453-2.499,2.453c-1.38,0-2.499-1.098-2.499-2.453
							c0-1.355,1.119-2.453,2.499-2.453C184.3,112.795,185.419,113.893,185.419,115.248z"/>
						<path style="fill:#7A5CE0;" d="M171.461,119.815c0,1.355-1.119,2.453-2.499,2.453c-1.38,0-2.499-1.098-2.499-2.453
							c0-1.355,1.119-2.453,2.499-2.453C170.342,117.362,171.461,118.46,171.461,119.815z"/>
						<path style="fill:#7A5CE0;" d="M185.035,123.034c0,1.355-1.119,2.453-2.499,2.453s-2.499-1.098-2.499-2.453
							c0-1.355,1.119-2.453,2.499-2.453S185.035,121.679,185.035,123.034z"/>
						<path style="fill:#7A5CE0;" d="M192.828,133.009c0,1.354-1.119,2.453-2.499,2.453s-2.499-1.098-2.499-2.453
							c0-1.355,1.119-2.453,2.499-2.453S192.828,131.654,192.828,133.009z"/>
						<path style="fill:#7A5CE0;" d="M165.947,144.85c0,1.355-1.119,2.453-2.499,2.453s-2.498-1.098-2.498-2.453
							s1.119-2.453,2.498-2.453S165.947,143.495,165.947,144.85z"/>
						<ellipse style="fill:#7A5CE0;" cx="154.832" cy="160.751" rx="2.499" ry="2.453"/>
						<path style="fill:#7A5CE0;" d="M133.207,164.641c0,1.355-1.119,2.453-2.499,2.453s-2.499-1.098-2.499-2.453
							c0-1.355,1.119-2.453,2.499-2.453S133.207,163.287,133.207,164.641z"/>
						<path style="fill:#7A5CE0;" d="M165.085,138.253c0,1.355-1.119,2.453-2.499,2.453c-1.38,0-2.499-1.098-2.499-2.453
							s1.119-2.453,2.499-2.453C163.967,135.8,165.085,136.898,165.085,138.253z"/>
						<path style="fill:#7A5CE0;" d="M149.921,161.427c0,1.355-1.119,2.453-2.499,2.453c-1.38,0-2.499-1.098-2.499-2.453
							s1.118-2.453,2.499-2.453C148.803,158.975,149.921,160.073,149.921,161.427z"/>
						<path style="fill:#7A5CE0;" d="M197.998,128.273c0,1.355-1.119,2.453-2.499,2.453c-1.38,0-2.499-1.098-2.499-2.453
							c0-1.355,1.119-2.453,2.499-2.453C196.879,125.82,197.998,126.918,197.998,128.273z"/>
						<path style="fill:#7A5CE0;" d="M219.71,121.845c0,1.355-1.119,2.453-2.499,2.453c-1.38,0-2.499-1.098-2.499-2.453
							c0-1.355,1.119-2.453,2.499-2.453C218.591,119.392,219.71,120.49,219.71,121.845z"/>
						<path style="fill:#7A5CE0;" d="M231.082,134.531c0,1.355-1.119,2.453-2.498,2.453c-1.38,0-2.499-1.098-2.499-2.453
							c0-1.355,1.119-2.453,2.499-2.453C229.964,132.079,231.082,133.177,231.082,134.531z"/>
						<path style="fill:#7A5CE0;" d="M225.224,127.427c0,1.355-1.119,2.453-2.499,2.453s-2.499-1.098-2.499-2.453
							c0-1.355,1.119-2.453,2.499-2.453S225.224,126.072,225.224,127.427z"/>
						<path style="fill:#7A5CE0;" d="M212.128,122.352c0,1.355-1.119,2.453-2.498,2.453c-1.38,0-2.499-1.098-2.499-2.453
							s1.119-2.453,2.499-2.453C211.009,119.899,212.128,120.998,212.128,122.352z"/>
						<ellipse style="fill:#7A5CE0;" cx="204.287" cy="126.412" rx="2.499" ry="2.453"/>
						<path style="fill:#7A5CE0;" d="M212.645,128.949c0,1.355-1.119,2.453-2.499,2.453c-1.38,0-2.499-1.098-2.499-2.453
							c0-1.355,1.119-2.453,2.499-2.453C211.526,126.497,212.645,127.595,212.645,128.949z"/>
						<path style="fill:#7A5CE0;" d="M214.368,144.512c0,1.355-1.119,2.453-2.499,2.453c-1.38,0-2.499-1.098-2.499-2.453
							c0-1.355,1.119-2.453,2.499-2.453C213.249,142.059,214.368,143.157,214.368,144.512z"/>
						<path style="fill:#7A5CE0;" d="M172.495,130.641c0,1.355-1.119,2.453-2.499,2.453c-1.38,0-2.499-1.098-2.499-2.453
							c0-1.355,1.119-2.453,2.499-2.453C171.376,128.188,172.495,129.286,172.495,130.641z"/>
						<path style="fill:#7A5CE0;" d="M159.227,167.517c0,1.354-1.119,2.453-2.499,2.453c-1.38,0-2.499-1.098-2.499-2.453
							c0-1.355,1.119-2.453,2.499-2.453C158.108,165.064,159.227,166.162,159.227,167.517z"/>
						<path style="fill:#7A5CE0;" d="M125.797,157.706c0,1.355-1.119,2.453-2.499,2.453s-2.499-1.098-2.499-2.453
							c0-1.355,1.119-2.453,2.499-2.453S125.797,156.351,125.797,157.706z"/>
						<path style="fill:#7A5CE0;" d="M158.02,136.9c0,1.355-1.119,2.453-2.499,2.453c-1.38,0-2.499-1.098-2.499-2.453
							c0-1.355,1.119-2.453,2.499-2.453C156.902,134.447,158.02,135.545,158.02,136.9z"/>
						<path style="fill:#7A5CE0;" d="M149.232,128.273c0,1.355-1.119,2.453-2.499,2.453s-2.499-1.098-2.499-2.453
							c0-1.355,1.119-2.453,2.499-2.453S149.232,126.918,149.232,128.273z"/>
						<path style="fill:#7A5CE0;" d="M144.235,140.114c0,1.355-1.119,2.453-2.499,2.453c-1.38,0-2.499-1.098-2.499-2.453
							c0-1.355,1.119-2.453,2.499-2.453C143.116,137.661,144.235,138.759,144.235,140.114z"/>
						<path style="fill:#7A5CE0;" d="M121.489,129.118c0,1.355-1.119,2.453-2.499,2.453c-1.38,0-2.498-1.098-2.498-2.453
							c0-1.355,1.119-2.453,2.498-2.453C120.371,126.666,121.489,127.764,121.489,129.118z"/>
						<path style="fill:#7A5CE0;" d="M126.142,125.397c0,1.355-1.119,2.453-2.499,2.453c-1.38,0-2.499-1.098-2.499-2.453
							s1.119-2.453,2.499-2.453C125.023,122.944,126.142,124.043,126.142,125.397z"/>
						<path style="fill:#7A5CE0;" d="M140.961,124.72c0,1.355-1.119,2.453-2.499,2.453c-1.38,0-2.499-1.098-2.499-2.453
							c0-1.355,1.119-2.453,2.499-2.453C139.842,122.268,140.961,123.366,140.961,124.72z"/>
						<ellipse style="fill:#7A5CE0;" cx="149.835" cy="115.586" rx="2.499" ry="2.453"/>
						<path style="fill:#7A5CE0;" d="M129.847,181.134c0,1.355-1.119,2.453-2.499,2.453c-1.38,0-2.499-1.098-2.499-2.453
							c0-1.355,1.119-2.453,2.499-2.453C128.728,178.681,129.847,179.779,129.847,181.134z"/>
						<path style="fill:#7A5CE0;" d="M125.194,167.602c0,1.355-1.119,2.453-2.499,2.453c-1.38,0-2.499-1.098-2.499-2.453
							c0-1.355,1.119-2.453,2.499-2.453C124.075,165.149,125.194,166.247,125.194,167.602z"/>
						<path style="fill:#7A5CE0;" d="M129.847,173.184c0,1.355-1.119,2.453-2.499,2.453c-1.38,0-2.499-1.098-2.499-2.453
							c0-1.355,1.119-2.453,2.499-2.453C128.728,170.731,129.847,171.829,129.847,173.184z"/>
						<path style="fill:#7A5CE0;" d="M134.844,176.736c0,1.355-1.119,2.453-2.499,2.453c-1.38,0-2.499-1.098-2.499-2.453
							c0-1.355,1.119-2.453,2.499-2.453C133.725,174.283,134.844,175.381,134.844,176.736z"/>
						<path style="fill:#7A5CE0;" d="M145.786,181.219c0,1.355-1.119,2.453-2.499,2.453c-1.38,0-2.499-1.098-2.499-2.453
							s1.119-2.453,2.499-2.453C144.667,178.766,145.786,179.864,145.786,181.219z"/>
						<path style="fill:#7A5CE0;" d="M190.933,180.373c0,1.355-1.119,2.453-2.499,2.453s-2.499-1.098-2.499-2.453
							c0-1.355,1.119-2.453,2.499-2.453S190.933,179.018,190.933,180.373z"/>
						<ellipse style="fill:#7A5CE0;" cx="199.635" cy="146.711" rx="2.499" ry="2.453"/>
						<path style="fill:#7A5CE0;" d="M207.992,133.347c0,1.355-1.119,2.453-2.499,2.453c-1.38,0-2.499-1.098-2.499-2.453
							c0-1.355,1.119-2.453,2.499-2.453C206.873,130.895,207.992,131.993,207.992,133.347z"/>
						<path style="fill:#7A5CE0;" d="M185.074,186.463c0,1.354-1.119,2.453-2.499,2.453s-2.499-1.098-2.499-2.453
							c0-1.355,1.119-2.453,2.499-2.453S185.074,185.108,185.074,186.463z"/>
						<path style="fill:#7A5CE0;" d="M187.142,220.294c0,1.355-1.119,2.453-2.498,2.453c-1.38,0-2.499-1.098-2.499-2.453
							c0-1.355,1.119-2.453,2.499-2.453C186.023,217.841,187.142,218.939,187.142,220.294z"/>
						<path style="fill:#7A5CE0;" d="M196.447,259.876c0,1.354-1.119,2.453-2.498,2.453c-1.38,0-2.499-1.098-2.499-2.453
							c0-1.355,1.119-2.453,2.499-2.453C195.328,257.424,196.447,258.522,196.447,259.876z"/>
						<path style="fill:#7A5CE0;" d="M208.595,234.884c0,1.355-1.119,2.453-2.498,2.453c-1.38,0-2.499-1.098-2.499-2.453
							s1.119-2.453,2.499-2.453C207.477,232.431,208.595,233.529,208.595,234.884z"/>
						<path style="fill:#7A5CE0;" d="M241.249,210.821c0,1.355-1.119,2.453-2.499,2.453s-2.499-1.098-2.499-2.453
							c0-1.355,1.119-2.453,2.499-2.453S241.249,209.466,241.249,210.821z"/>
						<path style="fill:#7A5CE0;" d="M241.077,202.532c0,1.355-1.119,2.453-2.499,2.453c-1.38,0-2.498-1.098-2.498-2.453
							s1.119-2.453,2.498-2.453C239.958,200.08,241.077,201.178,241.077,202.532z"/>
						<path style="fill:#7A5CE0;" d="M232.386,202.555c0,1.355-1.119,2.453-2.499,2.453s-2.499-1.098-2.499-2.453
							s1.119-2.453,2.499-2.453S232.386,201.2,232.386,202.555z"/>
						<path style="fill:#7A5CE0;" d="M221.562,192.764c0,1.354-1.119,2.453-2.499,2.453c-1.38,0-2.498-1.098-2.498-2.453
							c0-1.355,1.119-2.453,2.498-2.453C220.443,190.311,221.562,191.409,221.562,192.764z"/>
						<path style="fill:#7A5CE0;" d="M241.421,195.09c0,1.355-1.119,2.453-2.499,2.453c-1.38,0-2.499-1.098-2.499-2.453
							c0-1.355,1.119-2.453,2.499-2.453C240.303,192.637,241.421,193.735,241.421,195.09z"/>
						<ellipse style="fill:#7A5CE0;" cx="234.787" cy="147.895" rx="2.499" ry="2.453"/>
						<path style="fill:#7A5CE0;" d="M208.854,149.417c0,1.355-1.119,2.453-2.499,2.453c-1.38,0-2.498-1.098-2.498-2.453
							s1.119-2.453,2.498-2.453C207.735,146.964,208.854,148.063,208.854,149.417z"/>
						<path style="fill:#7A5CE0;" d="M236.597,140.114c0,1.355-1.119,2.453-2.499,2.453c-1.38,0-2.499-1.098-2.499-2.453
							c0-1.355,1.119-2.453,2.499-2.453C235.478,137.661,236.597,138.759,236.597,140.114z"/>
						<path style="fill:#7A5CE0;" d="M200.927,179.358c0,1.355-1.119,2.453-2.499,2.453c-1.38,0-2.499-1.098-2.499-2.453
							c0-1.354,1.119-2.453,2.499-2.453C199.808,176.905,200.927,178.003,200.927,179.358z"/>
						<path style="fill:#7A5CE0;" d="M224.018,217.926c0,1.355-1.119,2.453-2.499,2.453c-1.38,0-2.499-1.098-2.499-2.453
							c0-1.354,1.119-2.453,2.499-2.453C222.899,215.473,224.018,216.571,224.018,217.926z"/>
						<path style="fill:#7A5CE0;" d="M211.666,218.989c0,1.355-1.119,2.453-2.499,2.453s-2.499-1.098-2.499-2.453
							c0-1.355,1.119-2.453,2.499-2.453S211.666,217.635,211.666,218.989z"/>
						<path style="fill:#7A5CE0;" d="M232.289,211.836c0,1.355-1.119,2.453-2.499,2.453c-1.38,0-2.499-1.098-2.499-2.453
							s1.119-2.453,2.499-2.453C231.17,209.383,232.289,210.481,232.289,211.836z"/>
						<path style="fill:#7A5CE0;" d="M245.902,184.771c0,1.355-1.119,2.453-2.499,2.453c-1.38,0-2.499-1.098-2.499-2.453
							s1.119-2.453,2.499-2.453C244.783,182.318,245.902,183.416,245.902,184.771z"/>
						<path style="fill:#7A5CE0;" d="M241.766,188.704c0,1.355-1.119,2.453-2.499,2.453c-1.38,0-2.498-1.098-2.498-2.453
							s1.119-2.453,2.498-2.453C240.647,186.251,241.766,187.349,241.766,188.704z"/>
						<path style="fill:#7A5CE0;" d="M224.018,177.497c0,1.355-1.119,2.453-2.499,2.453c-1.38,0-2.499-1.098-2.499-2.453
							s1.119-2.453,2.499-2.453C222.899,175.044,224.018,176.143,224.018,177.497z"/>
						<ellipse style="fill:#7A5CE0;" cx="240.818" cy="160.751" rx="2.499" ry="2.453"/>
						<path style="fill:#7A5CE0;" d="M230.049,154.154c0,1.355-1.119,2.453-2.498,2.453c-1.38,0-2.499-1.098-2.499-2.453
							c0-1.355,1.119-2.453,2.499-2.453C228.93,151.701,230.049,152.799,230.049,154.154z"/>
						<path style="fill:#7A5CE0;" d="M225.051,168.025c0,1.355-1.119,2.453-2.499,2.453c-1.38,0-2.499-1.098-2.499-2.453
							s1.119-2.453,2.499-2.453C223.933,165.572,225.051,166.67,225.051,168.025z"/>
						<path style="fill:#7A5CE0;" d="M215.574,168.025c0,1.355-1.119,2.453-2.499,2.453s-2.499-1.098-2.499-2.453
							s1.119-2.453,2.499-2.453S215.574,166.67,215.574,168.025z"/>
						<path style="fill:#7A5CE0;" d="M217.814,154.154c0,1.355-1.119,2.453-2.498,2.453c-1.38,0-2.499-1.098-2.499-2.453
							c0-1.355,1.119-2.453,2.499-2.453C216.695,151.701,217.814,152.799,217.814,154.154z"/>
						<path style="fill:#7A5CE0;" d="M196.792,164.472c0,1.355-1.119,2.453-2.499,2.453c-1.38,0-2.499-1.098-2.499-2.453
							c0-1.355,1.119-2.453,2.499-2.453C195.673,162.019,196.792,163.118,196.792,164.472z"/>
						<path style="fill:#7A5CE0;" d="M204.299,165.25c0,1.355-1.119,2.453-2.499,2.453c-1.38,0-2.498-1.098-2.498-2.453
							c0-1.355,1.118-2.453,2.498-2.453C203.18,162.798,204.299,163.896,204.299,165.25z"/>
						<path style="fill:#7A5CE0;" d="M210.541,173.776c0,1.355-1.119,2.453-2.499,2.453c-1.38,0-2.499-1.098-2.499-2.453
							c0-1.355,1.119-2.453,2.499-2.453C209.422,171.323,210.541,172.421,210.541,173.776z"/>
						<ellipse style="fill:#7A5CE0;" cx="227.378" cy="177.286" rx="2.499" ry="2.453"/>
						<path style="fill:#7A5CE0;" d="M235.175,182.234c0,1.355-1.119,2.453-2.499,2.453c-1.38,0-2.499-1.098-2.499-2.453
							c0-1.355,1.119-2.453,2.499-2.453C234.056,179.781,235.175,180.879,235.175,182.234z"/>
						<path style="fill:#7A5CE0;" d="M199.032,203.717c0,1.355-1.119,2.453-2.499,2.453c-1.38,0-2.499-1.098-2.499-2.453
							c0-1.355,1.119-2.453,2.499-2.453C197.913,201.264,199.032,202.362,199.032,203.717z"/>
						<path style="fill:#7A5CE0;" d="M207.266,208.184c0,1.355-1.119,2.453-2.499,2.453c-1.38,0-2.499-1.098-2.499-2.453
							s1.119-2.453,2.499-2.453C206.147,205.731,207.266,206.829,207.266,208.184z"/>
						<path style="fill:#7A5CE0;" d="M205.424,213.182c0,1.355-1.119,2.453-2.498,2.453c-1.38,0-2.499-1.098-2.499-2.453
							c0-1.355,1.119-2.453,2.499-2.453C204.305,210.73,205.424,211.828,205.424,213.182z"/>
						<ellipse style="fill:#7A5CE0;" cx="204.287" cy="193.905" rx="2.499" ry="2.453"/>
						<path style="fill:#7A5CE0;" d="M223.328,230.612c0,1.355-1.119,2.453-2.499,2.453c-1.38,0-2.499-1.098-2.499-2.453
							c0-1.355,1.119-2.453,2.499-2.453C222.21,228.16,223.328,229.258,223.328,230.612z"/>
						<path style="fill:#7A5CE0;" d="M141.837,114.931c0,1.355-1.119,2.453-2.499,2.453c-1.38,0-2.499-1.098-2.499-2.453
							s1.119-2.453,2.499-2.453C140.719,112.479,141.837,113.577,141.837,114.931z"/>
						<ellipse style="fill:#7A5CE0;" cx="219.298" cy="143.123" rx="2.499" ry="2.453"/>
						<path style="fill:#7A5CE0;" d="M204.072,255.225c0,1.355-1.119,2.453-2.499,2.453s-2.498-1.098-2.498-2.453
							s1.119-2.453,2.498-2.453S204.072,253.87,204.072,255.225z"/>
						<path style="fill:#7A5CE0;" d="M195.413,211.159c0,1.355-1.119,2.453-2.499,2.453c-1.38,0-2.499-1.098-2.499-2.453
							c0-1.355,1.119-2.453,2.499-2.453C194.294,208.707,195.413,209.805,195.413,211.159z"/>
						<ellipse style="fill:#7A5CE0;" cx="196.705" cy="193.905" rx="2.499" ry="2.453"/>
						<path style="fill:#7A5CE0;" d="M208.509,183.925c0,1.355-1.119,2.453-2.499,2.453c-1.38,0-2.499-1.098-2.499-2.453
							s1.119-2.453,2.499-2.453C207.39,181.472,208.509,182.571,208.509,183.925z"/>
						<ellipse style="fill:#7A5CE0;" cx="193.087" cy="198.811" rx="2.499" ry="2.453"/>
						<path style="fill:#7A5CE0;" d="M216.78,184.094c0,1.355-1.119,2.453-2.499,2.453c-1.38,0-2.498-1.098-2.498-2.453
							c0-1.355,1.119-2.453,2.498-2.453C215.662,181.642,216.78,182.74,216.78,184.094z"/>
						<path style="fill:#7A5CE0;" d="M179.388,223.508c0,1.355-1.119,2.453-2.499,2.453c-1.38,0-2.499-1.098-2.499-2.453
							c0-1.355,1.119-2.453,2.499-2.453C178.269,221.055,179.388,222.153,179.388,223.508z"/>
						<path style="fill:#7A5CE0;" d="M147.509,186.801c0,1.355-1.119,2.453-2.499,2.453c-1.38,0-2.499-1.098-2.499-2.453
							c0-1.355,1.119-2.453,2.499-2.453C146.39,184.348,147.509,185.446,147.509,186.801z"/>
						<ellipse style="fill:#7A5CE0;" cx="116.32" cy="187.224" rx="2.499" ry="2.453"/>
						<ellipse style="fill:#7A5CE0;" cx="109.082" cy="190.438" rx="2.499" ry="2.453"/>
						<path style="fill:#7A5CE0;" d="M115.717,155.761c0,1.355-1.119,2.453-2.499,2.453c-1.38,0-2.499-1.098-2.499-2.453
							c0-1.355,1.119-2.453,2.499-2.453C114.598,153.308,115.717,154.406,115.717,155.761z"/>
						<path style="fill:#7A5CE0;" d="M122.437,181.134c0,1.355-1.119,2.453-2.499,2.453c-1.38,0-2.499-1.098-2.499-2.453
							c0-1.355,1.119-2.453,2.499-2.453C121.318,178.681,122.437,179.779,122.437,181.134z"/>
						<path style="fill:#7A5CE0;" d="M139.841,151.363c0,1.355-1.118,2.453-2.499,2.453c-1.38,0-2.499-1.098-2.499-2.453
							s1.119-2.453,2.499-2.453C138.722,148.91,139.841,150.008,139.841,151.363z"/>
						<ellipse style="fill:#7A5CE0;" cx="177.32" cy="156.437" rx="2.499" ry="2.453"/>
						<path style="fill:#7A5CE0;" d="M200.152,171.323c0,1.355-1.119,2.453-2.499,2.453c-1.38,0-2.499-1.098-2.499-2.453
							c0-1.355,1.119-2.453,2.499-2.453C199.033,168.87,200.152,169.968,200.152,171.323z"/>
						<path style="fill:#7A5CE0;" d="M191.364,185.871c0,1.354-1.119,2.453-2.499,2.453c-1.38,0-2.499-1.098-2.499-2.453
							c0-1.355,1.119-2.453,2.499-2.453C190.245,183.418,191.364,184.516,191.364,185.871z"/>
						<ellipse style="fill:#7A5CE0;" cx="178.095" cy="180.204" rx="2.499" ry="2.453"/>
						<path style="fill:#7A5CE0;" d="M189.296,164.388c0,1.355-1.119,2.453-2.499,2.453s-2.499-1.098-2.499-2.453
							c0-1.355,1.119-2.453,2.499-2.453S189.296,163.033,189.296,164.388z"/>
						<path style="fill:#7A5CE0;" d="M171.719,171.831c0,1.355-1.119,2.453-2.499,2.453c-1.38,0-2.498-1.098-2.498-2.453
							c0-1.355,1.119-2.453,2.498-2.453C170.601,169.378,171.719,170.476,171.719,171.831z"/>
						<path style="fill:#7A5CE0;" d="M182.575,161.512c0,1.355-1.119,2.453-2.499,2.453c-1.38,0-2.499-1.098-2.499-2.453
							s1.119-2.453,2.499-2.453C181.457,159.059,182.575,160.157,182.575,161.512z"/>
						<path style="fill:#7A5CE0;" d="M165.516,161.343c0,1.355-1.119,2.453-2.499,2.453s-2.498-1.098-2.498-2.453
							c0-1.355,1.119-2.453,2.498-2.453S165.516,159.988,165.516,161.343z"/>
						<path style="fill:#7A5CE0;" d="M193.087,169.632c0,1.355-1.119,2.453-2.499,2.453c-1.38,0-2.499-1.098-2.499-2.453
							s1.119-2.453,2.499-2.453C191.968,167.179,193.087,168.277,193.087,169.632z"/>
						<path style="fill:#7A5CE0;" d="M142.598,171.831c0,1.355-1.119,2.453-2.499,2.453c-1.38,0-2.499-1.098-2.499-2.453
							c0-1.355,1.119-2.453,2.499-2.453C141.479,169.378,142.598,170.476,142.598,171.831z"/>
						<path style="fill:#7A5CE0;" d="M107.101,179.443c0,1.355-1.119,2.453-2.499,2.453c-1.38,0-2.499-1.098-2.499-2.453
							c0-1.355,1.119-2.453,2.499-2.453C105.982,176.99,107.101,178.088,107.101,179.443z"/>
						<polyline style="fill:none;stroke:#7A5CE0;stroke-miterlimit:10;" points="102.965,154.154 109.427,160.497 109.427,182.572 
													"/>
						<line style="fill:none;stroke:#7A5CE0;stroke-miterlimit:10;" x1="104.688" y1="161.766" x2="104.688" y2="179.02"/>
						<polyline style="fill:none;stroke:#7A5CE0;stroke-miterlimit:10;" points="99.519,167.01 99.519,181.05 109.341,190.691 
													"/>
						<polyline style="fill:none;stroke:#7A5CE0;stroke-miterlimit:10;" points="113.477,155.338 113.477,174.791 119.938,181.134 
													"/>
						<path style="fill:none;stroke:#7A5CE0;stroke-miterlimit:10;" d="M122.609,167.348c0.345-0.508,10.511-10.318,10.511-10.318
							h44.458"/>
						<polyline style="fill:none;stroke:#7A5CE0;stroke-miterlimit:10;" points="137.256,151.278 179.991,151.278 193.862,164.895 
													"/>
						<polyline style="fill:none;stroke:#7A5CE0;stroke-miterlimit:10;" points="163.104,145.019 190.674,145.019 201.961,156.099 
							201.953,164.949 						"/>
						<polyline style="fill:none;stroke:#7A5CE0;stroke-miterlimit:10;" points="205.321,133.009 199.549,138.676 199.549,147.218 
													"/>
						<polyline style="fill:none;stroke:#7A5CE0;stroke-miterlimit:10;" points="222.38,127.765 211.869,138.084 211.869,145.358 
													"/>
						<line style="fill:none;stroke:#7A5CE0;stroke-miterlimit:10;" x1="228.584" y1="134.531" x2="219.71" y2="143.243"/>
						<polyline style="fill:none;stroke:#7A5CE0;stroke-miterlimit:10;" points="234.27,139.775 224.621,150.094 205.666,149.586 
													"/>
						<polyline style="fill:none;stroke:#7A5CE0;stroke-miterlimit:10;" points="215.143,153.815 207.475,161.343 207.475,174.107 
													"/>
						<line style="fill:none;stroke:#7A5CE0;stroke-miterlimit:10;" x1="212.903" y1="168.532" x2="227.808" y2="153.9"/>
						<polyline style="fill:none;stroke:#7A5CE0;stroke-miterlimit:10;" points="234.787,147.895 234.787,156.86 222.122,169.293 
													"/>
						<line style="fill:none;stroke:#7A5CE0;stroke-miterlimit:10;" x1="197.567" y1="171.238" x2="188.176" y2="180.458"/>
						<polyline style="fill:none;stroke:#7A5CE0;stroke-miterlimit:10;" points="191.019,169.039 182.058,177.836 182.058,187.816 
													"/>
						<polyline style="fill:none;stroke:#7A5CE0;stroke-miterlimit:10;" points="187.228,164.134 177.923,173.268 177.923,181.05 
													"/>
						<polyline style="fill:none;stroke:#7A5CE0;stroke-miterlimit:10;" points="156.039,167.855 163.104,160.92 180.508,160.92 
													"/>
						<polyline style="fill:none;stroke:#7A5CE0;stroke-miterlimit:10;" points="155.177,160.751 148.112,167.686 132.259,167.686 
							126.831,173.015 						"/>
						<polyline style="fill:none;stroke:#7A5CE0;stroke-miterlimit:10;" points="132.259,176.482 161.553,176.482 180.594,195.174 
							180.594,222.662 193.991,235.137 193.604,259.876 						"/>
						<path style="fill:none;stroke:#7A5CE0;stroke-miterlimit:10;" d="M140.186,171.746c0.517,0,22.229,0,22.229,0l21.54,21.145
							v27.742"/>
						<polyline style="fill:none;stroke:#7A5CE0;stroke-miterlimit:10;" points="188.779,185.109 188.779,218.095 201.875,230.951 
							220.313,230.951 						"/>
						<polyline style="fill:none;stroke:#7A5CE0;stroke-miterlimit:10;" points="238.751,210.821 225.051,224.269 206.355,224.269 
							192.785,210.948 						"/>
						<polyline style="fill:none;stroke:#7A5CE0;stroke-miterlimit:10;" points="205.072,208.284 211.525,208.284 221.605,218.179 
													"/>
						<polyline style="fill:none;stroke:#7A5CE0;stroke-miterlimit:10;" points="196.533,203.547 221.002,203.547 230.135,212.513 
													"/>
						<polyline style="fill:none;stroke:#7A5CE0;stroke-miterlimit:10;" points="192.742,198.811 212.903,198.811 219.365,192.468 
							229.713,202.626 						"/>
						<line style="fill:none;stroke:#7A5CE0;stroke-miterlimit:10;" x1="196.016" y1="194.413" x2="206.872" y2="183.756"/>
						<line style="fill:none;stroke:#7A5CE0;stroke-miterlimit:10;" x1="203.907" y1="194.413" x2="214.763" y2="183.756"/>
						<polyline style="fill:none;stroke:#7A5CE0;stroke-miterlimit:10;" points="198.084,179.189 214.626,179.189 238.837,202.955 
													"/>
						<line style="fill:none;stroke:#7A5CE0;stroke-miterlimit:10;" x1="221.174" y1="177.497" x2="239.354" y2="195.343"/>
						<polyline style="fill:none;stroke:#7A5CE0;stroke-miterlimit:10;" points="227.852,177.032 235.821,176.99 243.834,184.856 
													"/>
						<polyline style="fill:none;stroke:#7A5CE0;stroke-miterlimit:10;" points="240.991,160.412 227.464,173.691 207.044,173.691 
													"/>
						<line style="fill:none;stroke:#7A5CE0;stroke-miterlimit:10;" x1="168.962" y1="171.915" x2="180.077" y2="161.512"/>
						<polyline style="fill:none;stroke:#7A5CE0;stroke-miterlimit:10;" points="130.536,164.811 134.154,161.258 147.768,161.258 
													"/>
						<polyline style="fill:none;stroke:#7A5CE0;stroke-miterlimit:10;" points="116.061,187.139 137.256,187.139 143.804,180.711 
													"/>
						<polyline style="fill:none;stroke:#7A5CE0;stroke-miterlimit:10;" points="145.183,187.308 151.386,181.219 159.657,181.219 
							176.286,197.542 176.286,223.677 						"/>
						<line style="fill:none;stroke:#7A5CE0;stroke-miterlimit:10;" x1="232.763" y1="182.741" x2="238.449" y2="188.323"/>
						<polyline style="fill:none;stroke:#7A5CE0;stroke-miterlimit:10;" points="206.269,234.376 201.358,239.197 201.358,255.055 
													"/>
					</g>
					<line style="fill:none;stroke:#7A5CE0;stroke-miterlimit:10;" x1="203.999" y1="214.255" x2="209.922" y2="220.069"/>
				</g>
			</g>
			<line style="fill:none;stroke:#000000;stroke-miterlimit:10;" x1="77.207" y1="249.553" x2="86.888" y2="249.553"/>
			<path style="fill:none;stroke:#000000;stroke-miterlimit:10;" d="M152.934,308.497c7.894-2.278,15.387-5.954,22.035-10.806"/>
			<g>
				<g>
					<g>
						<path style="fill:#FFFFFF;" d="M104.63,220.044c-10.934,0-19.797-9.221-19.797-9.221s8.863-9.221,19.797-9.221
							s19.798,9.221,19.798,9.221S115.564,220.044,104.63,220.044z"/>
					</g>
				</g>
			</g>
			<g>
				<g>
					<path style="fill:#7A5CE0;" d="M170.106,253.702c-0.674-1.156-0.288-2.644,0.861-3.324c1.15-0.68,2.628-0.293,3.302,0.863
						c0.056,0.096,0.094,0.198,0.136,0.298c0.752-0.627,1.429-1.319,2.028-2.064c-0.11-0.043-0.22-0.084-0.326-0.145
						c-1.159-0.661-1.564-2.143-0.905-3.31c0.658-1.167,2.132-1.576,3.29-0.915c0.106,0.061,0.199,0.135,0.292,0.208
						c0.336-0.916,0.581-1.864,0.732-2.828c-0.125,0.021-0.251,0.041-0.381,0.042c-1.333,0.01-2.42-1.068-2.429-2.409
						c-0.009-1.341,1.064-2.437,2.396-2.447c0.13-0.001,0.255,0.017,0.38,0.036c-0.163-0.955-0.422-1.902-0.781-2.827
						c-0.101,0.085-0.205,0.168-0.322,0.237c-1.149,0.68-2.628,0.293-3.302-0.863c-0.674-1.156-0.289-2.644,0.861-3.324
						c0.112-0.066,0.23-0.114,0.347-0.16c-0.633-0.762-1.332-1.447-2.084-2.05c-0.045,0.123-0.093,0.246-0.16,0.364
						c-0.659,1.167-2.132,1.576-3.29,0.915c-1.158-0.661-1.564-2.143-0.905-3.31c0.062-0.11,0.138-0.206,0.213-0.302
						c-0.912-0.331-1.855-0.569-2.814-0.714c0.02,0.122,0.039,0.245,0.04,0.372c0.009,1.341-1.064,2.437-2.397,2.447
						c-1.333,0.01-2.42-1.068-2.429-2.409c-0.001-0.117,0.017-0.23,0.032-0.343c-0.936,0.17-1.865,0.434-2.774,0.796
						c0.071,0.089,0.143,0.177,0.202,0.278c0.674,1.156,0.288,2.644-0.861,3.324c-1.149,0.68-2.628,0.293-3.302-0.863
						c-0.052-0.089-0.086-0.183-0.126-0.276c-0.739,0.628-1.404,1.319-1.992,2.062c0.094,0.039,0.189,0.072,0.28,0.124
						c1.158,0.661,1.564,2.143,0.905,3.31c-0.659,1.167-2.131,1.576-3.29,0.915c-0.08-0.046-0.147-0.104-0.22-0.157
						c-0.32,0.897-0.554,1.823-0.697,2.765c0.091-0.011,0.18-0.029,0.275-0.03c1.332-0.01,2.42,1.068,2.429,2.409
						c0.009,1.341-1.064,2.436-2.397,2.447c-0.086,0.001-0.168-0.015-0.253-0.024c0.163,0.923,0.418,1.839,0.764,2.735
						c0.07-0.053,0.135-0.111,0.212-0.156c1.15-0.679,2.628-0.293,3.302,0.863c0.674,1.156,0.289,2.644-0.861,3.324
						c-0.072,0.043-0.149,0.069-0.224,0.104c0.613,0.737,1.287,1.401,2.011,1.99c0.035-0.083,0.064-0.167,0.108-0.247
						c0.659-1.167,2.132-1.576,3.29-0.915c1.158,0.661,1.564,2.143,0.905,3.309c-0.044,0.079-0.101,0.144-0.152,0.216
						c0.889,0.327,1.808,0.567,2.744,0.716c-0.012-0.095-0.03-0.189-0.031-0.287c-0.009-1.341,1.064-2.437,2.397-2.447
						c1.333-0.011,2.42,1.068,2.429,2.409c0.001,0.1-0.016,0.196-0.027,0.293c0.93-0.161,1.852-0.416,2.755-0.765
						C170.229,253.877,170.161,253.796,170.106,253.702z M168.995,247.791c-4.153,2.184-9.294,0.563-11.46-3.614
						c-2.166-4.177-0.549-9.352,3.604-11.536c4.153-2.184,9.294-0.563,11.46,3.614C174.765,240.431,173.148,245.607,168.995,247.791
						z"/>
					<path style="fill:none;stroke:#7A5CE0;stroke-miterlimit:10;" d="M168.068,246.004c-3.179,1.672-7.099,0.436-8.757-2.761
						c-1.658-3.197-0.425-7.144,2.754-8.815c3.179-1.672,7.099-0.436,8.757,2.761C172.48,240.386,171.247,244.332,168.068,246.004z"
						/>
				</g>
				<g>
					<path style="fill:#7A5CE0;" d="M140.417,196.669c-0.063-0.109-0.105-0.224-0.154-0.337c-0.903,0.767-1.715,1.612-2.433,2.519
						c0.115,0.048,0.232,0.089,0.342,0.152c1.415,0.808,1.91,2.618,1.106,4.043c-0.804,1.425-2.604,1.925-4.019,1.117
						c-0.098-0.056-0.18-0.127-0.269-0.192c-0.391,1.095-0.676,2.227-0.852,3.378c0.111-0.014,0.22-0.036,0.335-0.037
						c1.628-0.013,2.956,1.304,2.967,2.942c0.011,1.638-1.3,2.977-2.928,2.989c-0.106,0.001-0.206-0.019-0.309-0.029
						c0.2,1.128,0.51,2.246,0.933,3.34c0.086-0.064,0.165-0.135,0.259-0.191c1.404-0.83,3.21-0.358,4.033,1.054
						c0.823,1.412,0.353,3.23-1.052,4.06c-0.088,0.052-0.182,0.085-0.273,0.126c0.748,0.9,1.572,1.712,2.457,2.431
						c0.043-0.101,0.077-0.204,0.132-0.301c0.805-1.425,2.604-1.925,4.019-1.118c1.415,0.808,1.91,2.618,1.106,4.043
						c-0.054,0.096-0.123,0.176-0.185,0.263c1.086,0.4,2.209,0.693,3.351,0.875c-0.015-0.117-0.037-0.231-0.038-0.351
						c-0.011-1.638,1.3-2.977,2.928-2.989c1.628-0.013,2.956,1.305,2.967,2.943c0.001,0.122-0.02,0.239-0.033,0.358
						c1.136-0.197,2.262-0.508,3.365-0.935c-0.079-0.102-0.163-0.201-0.23-0.316c-0.823-1.412-0.353-3.23,1.052-4.06
						c1.404-0.83,3.21-0.358,4.033,1.054c0.069,0.118,0.115,0.241,0.166,0.364c0.919-0.766,1.746-1.611,2.477-2.521
						c-0.134-0.052-0.269-0.103-0.399-0.177c-1.415-0.808-1.91-2.618-1.106-4.043c0.804-1.425,2.604-1.925,4.019-1.117
						c0.13,0.074,0.243,0.165,0.357,0.255c0.411-1.119,0.71-2.277,0.894-3.455c-0.153,0.026-0.306,0.05-0.466,0.051
						c-1.628,0.013-2.956-1.304-2.967-2.942c-0.011-1.638,1.3-2.976,2.928-2.989c0.159-0.001,0.312,0.02,0.464,0.043
						c-0.199-1.166-0.516-2.323-0.954-3.454c-0.123,0.104-0.25,0.205-0.393,0.29c-1.404,0.83-3.21,0.358-4.033-1.054
						c-0.823-1.412-0.353-3.23,1.052-4.06c0.137-0.081,0.281-0.14,0.424-0.196c-0.773-0.931-1.627-1.767-2.545-2.505
						c-0.055,0.15-0.114,0.301-0.195,0.445c-0.804,1.425-2.604,1.925-4.019,1.117c-1.415-0.808-1.91-2.618-1.106-4.043
						c0.076-0.134,0.168-0.252,0.26-0.369c-1.114-0.405-2.266-0.696-3.437-0.872c0.024,0.149,0.048,0.299,0.049,0.455
						c0.011,1.638-1.3,2.977-2.928,2.989c-1.628,0.013-2.956-1.304-2.967-2.943c-0.001-0.143,0.021-0.281,0.039-0.419
						c-1.144,0.207-2.279,0.53-3.389,0.972c0.087,0.109,0.175,0.216,0.247,0.34c0.823,1.412,0.352,3.23-1.052,4.06
						C143.046,198.552,141.241,198.081,140.417,196.669z M159.284,202.878c3.899,4.039,3.712,10.539-0.418,14.49
						c-4.129,3.951-10.661,3.88-14.56-0.159c-3.899-4.039-3.712-10.539,0.417-14.49C148.852,198.769,155.385,198.84,159.284,202.878
						z"/>
					<path style="fill:none;stroke:#7A5CE0;stroke-miterlimit:10;" d="M155.404,217.063c-3.82,2.009-8.531,0.523-10.522-3.318
						c-1.992-3.841-0.51-8.584,3.309-10.593c3.82-2.009,8.531-0.523,10.522,3.318C160.706,210.311,159.224,215.054,155.404,217.063z
						"/>
				</g>
			</g>
		</g>
	</g>
	<g>
		<g>
			<g>
				<polyline style="fill:none;stroke:#1C1C1B;stroke-linecap:round;stroke-linejoin:round;stroke-miterlimit:10;" points="
					305.785,398.585 298.767,405.064 305.785,411.542 				"/>
				<polyline style="fill:none;stroke:#1C1C1B;stroke-linecap:round;stroke-linejoin:round;stroke-miterlimit:10;" points="
					310.525,398.585 303.507,405.064 310.525,411.542 				"/>
			</g>
			<g>
				<polyline style="fill:none;stroke:#1C1C1B;stroke-linecap:round;stroke-linejoin:round;stroke-miterlimit:10;" points="
					344.463,398.585 351.468,405.064 344.463,411.542 				"/>
			</g>
			<path style="fill:none;stroke:#1C1C1B;stroke-linecap:round;stroke-linejoin:round;stroke-miterlimit:10;" d="M316.115,405.033
				c0,1.466-1.189,2.655-2.655,2.655c-1.466,0-2.655-1.189-2.655-2.655c0-1.466,1.189-2.655,2.655-2.655
				C314.926,402.378,316.115,403.567,316.115,405.033z"/>
			
				<line style="fill:none;stroke:#1C1C1B;stroke-linecap:round;stroke-linejoin:round;stroke-miterlimit:10;" x1="320.73" y1="405.033" x2="331.13" y2="405.033"/>
			
				<line style="fill:none;stroke:#1C1C1B;stroke-linecap:round;stroke-linejoin:round;stroke-miterlimit:10;" x1="335.555" y1="405.033" x2="341.751" y2="405.033"/>
		</g>
		<g>
			<path style="fill:none;stroke:#1C1C1B;stroke-linecap:round;stroke-linejoin:round;stroke-miterlimit:10;" d="M268.175,366.512
				c0,1.437,1.181,2.602,2.637,2.602c1.456,0,2.637-1.165,2.637-2.602c0-1.437-1.181-2.601-2.637-2.601
				C269.355,363.91,268.175,365.075,268.175,366.512z"/>
			
				<line style="fill:none;stroke:#1C1C1B;stroke-linecap:round;stroke-linejoin:round;stroke-miterlimit:10;" x1="301.788" y1="359.811" x2="310.577" y2="370.65"/>
			
				<line style="fill:none;stroke:#1C1C1B;stroke-linecap:round;stroke-linejoin:round;stroke-miterlimit:10;" x1="296.514" y1="359.811" x2="305.303" y2="370.65"/>
			
				<line style="fill:none;stroke:#1C1C1B;stroke-linecap:round;stroke-linejoin:round;stroke-miterlimit:10;" x1="294.205" y1="366.735" x2="277.908" y2="366.735"/>
		</g>
		<g>
			<line style="fill:none;stroke:#C0A4FC;stroke-miterlimit:10;" x1="202.385" y1="326.401" x2="195.009" y2="333.777"/>
			<line style="fill:none;stroke:#C0A4FC;stroke-miterlimit:10;" x1="207.873" y1="326.401" x2="200.498" y2="333.777"/>
			<line style="fill:none;stroke:#C0A4FC;stroke-miterlimit:10;" x1="219.985" y1="326.401" x2="212.609" y2="333.777"/>
		</g>
		<g>
			<path style="fill:none;stroke:#C0A4FC;stroke-miterlimit:10;" d="M209.947,410.983c0,1.414-1.146,2.561-2.561,2.561
				c-1.414,0-2.561-1.147-2.561-2.561c0-1.414,1.146-2.561,2.561-2.561C208.8,408.422,209.947,409.569,209.947,410.983z"/>
			<line style="fill:none;stroke:#C0A4FC;stroke-miterlimit:10;" x1="168.767" y1="404.387" x2="160.231" y2="415.057"/>
			<line style="fill:none;stroke:#C0A4FC;stroke-miterlimit:10;" x1="177.303" y1="404.387" x2="168.767" y2="415.057"/>
			<line style="fill:none;stroke:#C0A4FC;stroke-miterlimit:10;" x1="182.425" y1="404.387" x2="173.889" y2="415.057"/>
			<line style="fill:none;stroke:#C0A4FC;stroke-miterlimit:10;" x1="184.667" y1="411.203" x2="200.494" y2="411.203"/>
		</g>
		<g>
			<g>
				<polyline style="fill:none;stroke:#C0A4FC;stroke-miterlimit:10;" points="159.887,275.288 166.81,281.679 159.887,288.07 				
					"/>
				<polyline style="fill:none;stroke:#C0A4FC;stroke-miterlimit:10;" points="155.211,275.288 162.134,281.679 155.211,288.07 				
					"/>
			</g>
			<path style="fill:none;stroke:#C0A4FC;stroke-miterlimit:10;" d="M146.074,281.117c0,1.464-1.187,2.65-2.65,2.65
				s-2.65-1.186-2.65-2.65c0-1.464,1.186-2.65,2.65-2.65S146.074,279.654,146.074,281.117z"/>
			<line style="fill:none;stroke:#C0A4FC;stroke-miterlimit:10;" x1="150.047" y1="281.479" x2="157.83" y2="281.479"/>
		</g>
		<g>
			
				<line style="fill:none;stroke:#1C1C1B;stroke-linecap:round;stroke-linejoin:round;stroke-miterlimit:10;" x1="286.024" y1="270.767" x2="278.648" y2="278.143"/>
			
				<line style="fill:none;stroke:#1C1C1B;stroke-linecap:round;stroke-linejoin:round;stroke-miterlimit:10;" x1="291.513" y1="270.767" x2="284.137" y2="278.143"/>
			
				<line style="fill:none;stroke:#1C1C1B;stroke-linecap:round;stroke-linejoin:round;stroke-miterlimit:10;" x1="303.625" y1="270.767" x2="296.249" y2="278.143"/>
		</g>
	</g>
	<g>
		<g>
			<path style="fill:#FF9C40;" d="M108.53,79.2c-2.135,0.701-3.666,2.406-4.283,4.454c-0.188,0.623-0.717,1.065-1.353,1.095
				l-4.648-14.153L64.584,81.651l4.648,14.153c-0.53,0.353-1.218,0.311-1.739-0.08c-1.711-1.284-3.955-1.749-6.09-1.048
				c-3.656,1.201-5.555,5.343-4.099,9.119c1.322,3.428,5.086,5.293,8.452,4.198c2.144-0.697,3.682-2.406,4.301-4.46
				c0.188-0.623,0.716-1.065,1.353-1.094l4.648,14.153l13.759-4.518c-0.126-0.514-0.508-0.932-1.037-1.095
				c-2.04-0.628-3.742-2.174-4.448-4.322c-1.209-3.68,0.976-7.677,4.855-8.733c3.522-0.959,7.244,0.99,8.364,4.372
				c0.714,2.154,0.261,4.415-1.014,6.136c-0.33,0.445-0.389,1.007-0.186,1.496l13.368-4.39l-4.648-14.153
				c0.53-0.353,1.217-0.311,1.738,0.079c1.716,1.287,3.968,1.752,6.108,1.042c3.36-1.114,5.286-4.847,4.318-8.391
				C116.171,80.21,112.186,77.999,108.53,79.2z"/>
			<path style="fill:none;stroke:#000000;stroke-miterlimit:10;" d="M111.36,79.2c-2.135,0.701-3.666,2.406-4.283,4.454
				c-0.188,0.623-0.717,1.065-1.353,1.095l-4.648-14.153L67.414,81.651l4.648,14.153c-0.53,0.353-1.217,0.311-1.738-0.08
				c-1.712-1.284-3.955-1.749-6.09-1.048c-3.656,1.201-5.555,5.343-4.099,9.119c1.322,3.428,5.086,5.293,8.452,4.198
				c2.144-0.697,3.682-2.406,4.301-4.46c0.188-0.623,0.717-1.065,1.353-1.094l4.648,14.153l13.759-4.518
				c-0.126-0.514-0.508-0.932-1.037-1.095c-2.04-0.628-3.742-2.174-4.448-4.322c-1.208-3.68,0.976-7.677,4.855-8.733
				c3.522-0.959,7.244,0.99,8.364,4.372c0.714,2.154,0.261,4.415-1.013,6.136c-0.33,0.445-0.389,1.007-0.186,1.496l13.368-4.39
				l-4.648-14.153c0.53-0.353,1.217-0.311,1.738,0.079c1.716,1.287,3.968,1.752,6.108,1.042c3.36-1.114,5.285-4.847,4.318-8.391
				C119.001,80.21,115.017,77.999,111.36,79.2z"/>
		</g>
		<g>
			<path style="fill:#FF9C40;" d="M93.643,405.475c-1.904,1.269-4.378,1.58-6.623,0.554c-3.153-1.44-4.734-5.195-3.603-8.549
				c1.28-3.794,5.38-5.755,9.009-4.368c2.134,0.815,3.613,2.603,4.151,4.686c0.164,0.634,0.681,1.104,1.324,1.168l5.318-13.915
				l-13.259-5.067c0.072-0.654,0.542-1.186,1.168-1.361c2.059-0.575,3.84-2.102,4.672-4.281c1.426-3.731-0.486-7.902-4.26-9.116
				c-3.426-1.102-7.231,0.771-8.552,4.2c-0.841,2.184-0.534,4.517,0.62,6.324c0.35,0.548,0.346,1.258-0.037,1.793l-13.63-5.209
				l-5.318,13.915c0.522,0.382,1.221,0.376,1.766,0.013c1.795-1.197,4.097-1.541,6.236-0.717c3.358,1.294,5.15,5.133,4.018,8.628
				c-1.248,3.85-5.381,5.849-9.036,4.452c-2.134-0.816-3.613-2.603-4.151-4.686c-0.164-0.634-0.681-1.104-1.324-1.168l-5.318,13.915
				l33.277,12.717l5.318-13.915C94.886,405.107,94.187,405.112,93.643,405.475z"/>
			<path style="fill:none;stroke:#000000;stroke-miterlimit:10;" d="M96.473,405.475c-1.904,1.269-4.378,1.58-6.623,0.554
				c-3.153-1.44-4.734-5.195-3.603-8.549c1.28-3.794,5.38-5.755,9.009-4.368c2.134,0.815,3.613,2.603,4.151,4.686
				c0.164,0.634,0.681,1.104,1.324,1.168l5.318-13.915l-13.259-5.067c0.072-0.654,0.542-1.186,1.168-1.361
				c2.059-0.575,3.84-2.102,4.672-4.281c1.426-3.731-0.486-7.902-4.26-9.116c-3.426-1.102-7.231,0.771-8.552,4.2
				c-0.841,2.184-0.534,4.517,0.62,6.324c0.35,0.548,0.346,1.258-0.037,1.793l-13.63-5.209l-5.318,13.915
				c0.522,0.382,1.221,0.376,1.765,0.013c1.795-1.197,4.097-1.541,6.236-0.717c3.358,1.294,5.15,5.133,4.018,8.628
				c-1.247,3.85-5.382,5.849-9.036,4.452c-2.134-0.816-3.613-2.603-4.151-4.686c-0.164-0.634-0.681-1.104-1.324-1.168l-5.318,13.915
				l33.277,12.717l5.318-13.915C97.716,405.107,97.018,405.112,96.473,405.475z"/>
		</g>
		<g>
			<path style="fill:#FF9C40;" d="M400.237,107.188c-0.49-2.138,0.033-4.467,1.631-6.206c2.45-2.666,6.729-2.938,9.535-0.604
				c3.026,2.518,3.378,7,0.815,9.912c-1.519,1.726-3.714,2.502-5.85,2.293c-0.616-0.06-1.198,0.236-1.503,0.762l11.119,9.786
				l9.702-11.024c0.586,0.292,0.916,0.917,0.857,1.566c-0.193,2.133,0.601,4.332,2.341,5.863c2.936,2.583,7.419,2.268,9.916-0.736
				c2.418-2.909,1.954-7.341-0.931-9.751c-1.629-1.361-3.703-1.855-5.646-1.522c-0.618,0.106-1.516-0.17-1.989-0.587l9.702-11.024
				l-11.111-9.779c0.288-0.583,0.91-0.908,1.561-0.844c2.136,0.21,4.331-0.567,5.85-2.293c2.563-2.912,2.212-7.394-0.815-9.912
				c-2.806-2.334-7.085-2.063-9.535,0.604c-1.598,1.739-2.121,4.068-1.631,6.206c0.146,0.637-0.097,1.295-0.639,1.655l-11.111-9.779
				L388.553,98.99l11.119,9.786C400.155,108.406,400.376,107.791,400.237,107.188z"/>
			<path style="fill:none;stroke:#000000;stroke-miterlimit:10;" d="M403.068,107.188c-0.49-2.138,0.033-4.467,1.631-6.206
				c2.45-2.666,6.729-2.938,9.535-0.604c3.026,2.518,3.378,7,0.815,9.912c-1.519,1.726-3.714,2.502-5.85,2.293
				c-0.616-0.06-1.198,0.236-1.503,0.762l11.119,9.786l9.702-11.024c0.586,0.292,0.916,0.917,0.857,1.566
				c-0.193,2.133,0.601,4.332,2.341,5.863c2.935,2.583,7.419,2.268,9.916-0.736c2.418-2.909,1.954-7.341-0.931-9.751
				c-1.629-1.361-3.703-1.855-5.646-1.522c-0.618,0.106-1.516-0.17-1.989-0.587l9.702-11.024l-11.112-9.779
				c0.288-0.583,0.91-0.908,1.561-0.844c2.136,0.21,4.331-0.567,5.85-2.293c2.563-2.912,2.212-7.394-0.815-9.912
				c-2.806-2.334-7.085-2.063-9.535,0.604c-1.597,1.739-2.121,4.068-1.631,6.206c0.146,0.637-0.097,1.295-0.639,1.655l-11.112-9.779
				L391.383,98.99l11.119,9.786C402.986,108.406,403.206,107.791,403.068,107.188z"/>
		</g>
		<g>
			<path style="fill:#FF9C40;" d="M391.688,397.115c2.19-0.651,4.451-0.132,6.145,1.195c0.516,0.404,1.212,0.462,1.762,0.121
				l-4.243-14.28l13.987-4.156l0,0c-0.181-0.608-0.793-1.325-1.371-1.567c-3.252-1.362-5.461-5.2-3.728-9.941
				c4.171-5.835,11.29-3.752,12.859,1.529c0.664,2.236,0.179,4.531-1.105,6.24c-0.391,0.52-0.441,1.228-0.099,1.791l13.987-4.156
				l10.476,35.252l-34.53,10.261l-4.243-14.28c-0.646,0.015-1.198,0.444-1.409,1.063c-0.71,2.08-2.376,3.778-4.639,4.398
				c-3.47,0.95-7.227-1.118-8.37-4.609C385.933,402.211,387.992,398.213,391.688,397.115z"/>
			<path style="fill:none;stroke:#000000;stroke-miterlimit:10;" d="M394.518,397.115c2.19-0.651,4.451-0.132,6.145,1.195
				c0.516,0.404,1.212,0.462,1.762,0.121l-4.243-14.28l13.987-4.156l0,0c-0.181-0.608-0.793-1.325-1.371-1.567
				c-3.252-1.362-5.461-5.2-3.728-9.941c4.171-5.835,11.29-3.752,12.859,1.529c0.664,2.236,0.18,4.531-1.105,6.24
				c-0.391,0.52-0.441,1.228-0.099,1.791l13.987-4.156l10.476,35.252l-34.53,10.261l-4.243-14.28
				c-0.646,0.015-1.198,0.444-1.409,1.063c-0.71,2.08-2.376,3.778-4.639,4.398c-3.47,0.95-7.227-1.118-8.369-4.609
				C388.764,402.211,390.823,398.213,394.518,397.115z"/>
		</g>
	</g>
	<g>
		<g>
			<rect x="205.726" y="74.505" style="fill:#FF9C40;" width="17.354" height="4.896"/>
			<rect x="227.873" y="74.505" style="fill:#FF9C40;" width="20.425" height="4.896"/>
			<rect x="251.808" y="74.505" style="fill:#FF9C40;" width="12.065" height="4.896"/>
			<rect x="281.836" y="74.505" style="fill:#FF9C40;" width="13.82" height="4.896"/>
			<rect x="208.13" y="83.209" style="fill:#FF9C40;" width="32.71" height="4.896"/>
			<rect x="245.446" y="83.209" style="fill:#FF9C40;" width="25.227" height="4.896"/>
			<rect x="286.687" y="83.209" style="fill:#FF9C40;" width="8.774" height="4.896"/>
			<path style="fill:none;stroke:#1C1C1B;stroke-linecap:round;stroke-linejoin:round;stroke-miterlimit:10;" d="M296.628,71.901
				L296.628,71.901c1.933,0,3.5,1.607,3.5,3.589v2.551c0,0.952,0.369,1.865,1.025,2.538l1.053,1.08l-0.725,0.743
				c-0.656,0.673-1.025,1.586-1.025,2.538v2.168c0,1.982-1.567,3.589-3.5,3.589h-0.577"/>
			<path style="fill:none;stroke:#1C1C1B;stroke-linecap:round;stroke-linejoin:round;stroke-miterlimit:10;" d="M203.372,71.901
				L203.372,71.901c-1.933,0-3.5,1.607-3.5,3.589v2.551c0,0.952-0.369,1.865-1.025,2.538l-1.053,1.08l0.725,0.743
				c0.656,0.673,1.025,1.586,1.025,2.538v2.168c0,1.982,1.567,3.589,3.5,3.589h0.577"/>
			
				<line style="fill:none;stroke:#1C1C1B;stroke-linecap:round;stroke-linejoin:round;stroke-miterlimit:10;" x1="272.075" y1="74.285" x2="279.972" y2="88.325"/>
		</g>
	</g>
</g>
</svg>
